/* XPM */
static char *ad50cfe71c3547f0a6cbc0d564997873KXIc7NlSUbSg6zJK[] = {
/* columns rows colors chars-per-pixel */
"64 64 7 1 ",
"  c black",
". c #663931",
"X c #595652",
"o c #DC4F1D",
"O c #6ABE30",
"+ c #5B6EE1",
"@ c white",
/* pixels */
"                                                                ",
"                                                                ",
"                                                                ",
"                                                                ",
"                                                                ",
"                                                              @ ",
"                                                           @@@@ ",
"                                                         @@@@@@ ",
"                                                        @@@@@@@ ",
" @                                                  @@@@@@@@@@@ ",
" @@                                @@@@@@@@@@@@@@@@@@@@@@@@@@@@ ",
" @@@@                         @@@@@@@                 @@@@@@@@@ ",
" @@@@@@                     @@@@@@@@@                 @@@@@@@@@ ",
" @@@@@@@@@@@@@@@@@@@@@@@@@@@@@@@@@@@@                 @@@@@@@@@ ",
" @@@@@@@@@              @@@@@@@@@@@@@                 @@@@@@@@@ ",
" @@@@@@@@@              @@@@@@@@@@@@@                 @@@@@@@@@ ",
" @@@@@@@@@              @@@@@@@@@@@@@                 @@@@@@@@@ ",
" @@@@@@@@@              @@@@@@@@@@@@@                 @@@@@@@@@ ",
" @@@@@@@@@              @@@@@@@@@@@@@                 @@@@@@@@@ ",
" @@@@@@@@@              @@@@@@@@@@@@@ OO@@@@OOOOOOOOO @@@@@@@@@ ",
" @@@@@@@@@ ++@@@@@@++++ @@@@@@@@@@@@@ OO@@@@OOOOOOOOO @@@@@@@@@ ",
" @@@@@@@@@ ++@@@@@@++++ @@@@@@@@@@@@@ OO@@@@OOOOOOOOO @@@@@@@@@ ",
" @@@@@@@@@ ++++++++++++ @@@@@@@@@@@@@ OOOOOOOOOOOOOOO @@@@@@@@@ ",
" @@@@@@@@@ ++++++++++++ @@@@@@@@@@@@@ OOOOOOOOOOOOOOO @@@@@@@@@ ",
" @@@@@@@@@              @@@@@@@@@@@@@                 @@@@@@@@@ ",
" @@@@@@@@@@@@@@@@@@@@@@@@@@@@@@@@@@@@@@@@@@@@@@@@@@@@@@@@@@@@@@ ",
" @@@@@@@@@@@@@@@@@@@@@@@@@@@@@@@@@@@@@@@@@@@@@@@@@@@@@@@@@@@@@@ ",
" @@@@@@@@@@@@@@@@@@@@@@@@@@@@@@@@@@@@@@@@@@@@@@@@@@@@@@@@@@@@@@ ",
" @@@@@@@@@@@@@@@@@@@@@@@@@@@@@@@@@@@@@@@@@@@@@@@@@@@@@@@@@@@@@@ ",
" @@@@@@@@@@@@@@@@@@@@@@@@@@@@@@@@@@@@@@@@@@@@@@@@@@@@@@@@@@@@@@ ",
" @@@@@@@@@@@@@@@@@@@@@@@@@@@@@@@@@@@@@@@@@@@@@@@@@@@@@@@@@@@@@@ ",
" @@@@@@@@@@@@@@@@@@@@@@@@@@@@@@@@@@@@@@@@@@@@@@@@@@@@@@@@@@@@@@ ",
" @@@@@@@@@@@@@@@@@@@@@@@@@@@@@@@@@@@@@@@@@@@@@@@@@@@@@@@@@@@@@@ ",
" @@@@@@@@@@@@@@@@@@@@@@@@@@@@@@@@@@@@@@@@@@@@@@@@@@@@@@@@@@@@@@ ",
" @@@@@@@@@@@@@@@@@@@@@@@@@@@@@@@@@@@@@@@@@@@@@@@@@@@@@@@@@@@@@@ ",
" @@@@@@@@@@@@@@@@@@@@@@@@@@@@@@@@@@@@@@@@@@@@@@@@@@@@@@@@@@@@@@ ",
" @@@@@@@@@@@@@@@@@@@@@@@@@@@@@@@@@@@@@@@@@@@@@@@@@@@@@@@@@@@@@@ ",
" @@@@@@@XX@@@@@@@@@@@@@@@@@@@@@@@@@@@@@@@@@@@@@@@@@@@@@@@@@@@@@ ",
" @@@@@@@XXX@@@@@@@@@@@@@@@@@@@@@@@@@@@@@@@@@@@@@@@@@@@@@@@@@@@@ ",
" @@@@@@@XX@X@@@@@@@@@@@@@@@@@@@@@@@@@@@@@@@@@@@@@@@@@@@@@@@@@@@ ",
" @@@@@@@XX@XX@@@@@@@@@@@@@@@@@@@@@@@@@@@@@@@@@@@@@@@@@@@@@@@@@@ ",
" @@@@@@@X@@XXX@@@@@@           @@@@@@@@@@@@@@@@@@@@@@@@@@@@@@@@ ",
" @@@@@@@XX@XXX@@@@@@           @@@@@@@@@@@@@@@@@@@@@@@@@@@@@@@@ ",
" @@@@@@@@X@@XXX@@@@@           @@@@@@@@@@@@@@@@@@@@@@@@@@@@@@@@ ",
" @@@@@@@@X@@XXX@@@@@           @@@@@@@@@@@@@@@@@@@@@@@@@@@@@@@@ ",
" @@@@@@@@XX@@XXX@@@   .        @@@@@@@@@@@@@@@@@@@@@@@@@@@@@@@@ ",
" @@@@@@@@XX@@X@X@   ...        @@@@@@@@@@@@@@@@@@@@@@@@@@@@@@@@ ",
" @@@@@@@@@X@XX@X  .....        @@@@@@@@@@@@@@@@@@@@@@@@@@@@@@@@ ",
" @@@@@@@@@XXX@@X ......  @@@@@@@@@@@@@@@@@@@@@@@@@@@@@@@@@@@@@@ ",
" @@@@@@@@@XXXXXX....... @@@@@@@@@@@@@@@@@@@@@@@@@@@@@@@@@@@@@@@ ",
" @@@@@@@@@X@ XXX......  @@@@@@@@@@@@@@@@@@@@@@@@@@@@@@@@@@@@@@@ ",
" @@@@@@@@@XX XoXX....  @@@@@@@@@@@@@@@@@@@@@@@@@@@@@@@@@@@@@@@@ ",
" @@@@@@@@@@XXXooX...  @@@@@@@@@@@@@@@@@@@@@@@@@@@@@@@@@@@@@@@@@ ",
" @@@@@@@@@@  XooXX.  @@@@@@@@@@@@@@@@@@@@@@@@@@@@@@@@@@@@@@@@@@ ",
" @@@@@@@@@@@ XXXX  @@@@@@@@@@@@@@@@@@@@@@@@@@@@@@@@@@@@@@@@@@@@ ",
" @@@@@@@@@@@  X  @@@@@@@@@@@@@@@@@@@@@@@@@@@@@@@@@@@@@@@@@@@@@@ ",
" @@@@@@@@@@@@   @@@@@@@@@@@@@@@@@@@@@@@@@@@@@@@@@@@@@@@@@@@@@@@ ",
" @@@@@@@@@@@@@@@@@@@@@@@@@@@@@@@@@@@@@@@@@@@@@@@@@@@@@@@@@@@@@@ ",
" @@@@@@@@@@@@@@@@@@@@@@@@@@@@@@@@@@@@@@@@@@@@@@@@@@@@@@@@@@@@@@ ",
" @@@@@@@@@@@@@@@@@@@@@@@@@@@@@@@@@@@@@@@@@@@@@@@@@@@@@@@@@@@@@@ ",
" @@@@@@@@@@@@@@@@@@@@@@@@@@@@@@@@@@@@@@@@@@@@@@@@@@@@@@@@@@@@@@ ",
" @@@@@@@@@@@@@@@@@@@@@@@@@@@@@@@@@@@@@@@@@@@@@@@@@@@@@@@@@@@@@@ ",
" @@@@@@@@@@@@@@@@@@@@@@@@@@@@@@@@@@@@@@@@@@@@@@@@@@@@@@@@@@@@@@ ",
"                                                                "
};
